<?xml version="1.0" encoding="UTF-8"?>
<svg id="_Слой_1" data-name="Слой_1" xmlns="http://www.w3.org/2000/svg" version="1.1" viewBox="0 0 963.6 296.6">
  <!-- Generator: Adobe Illustrator 29.1.0, SVG Export Plug-In . SVG Version: 2.1.0 Build 142)  -->
  <path d="M357.9,233.6v-37h1.4v37h-1.4ZM358.8,215.4v-1.3h11.2v1.3h-11.2ZM369.9,215.2l-1.3-.4,15.8-18.2h1.7l-16.3,18.6ZM385.6,233.6l-17-18.8,1.3-.6,17.4,19.4h-1.7Z"/>
  <path d="M410.2,233.8c-3.4,0-6.5-.8-9.2-2.4-2.7-1.6-4.8-3.8-6.4-6.7-1.6-2.8-2.4-6.1-2.4-9.7s.8-6.9,2.4-9.7c1.6-2.8,3.7-5,6.4-6.6,2.7-1.6,5.8-2.4,9.2-2.4s6.5.8,9.2,2.4c2.7,1.6,4.9,3.8,6.4,6.6,1.6,2.8,2.3,6,2.3,9.7s-.8,6.9-2.3,9.7c-1.6,2.8-3.7,5.1-6.4,6.7-2.7,1.6-5.8,2.4-9.2,2.4ZM410.2,232.4c3.2,0,6-.7,8.5-2.2,2.5-1.5,4.5-3.5,5.9-6.2,1.4-2.6,2.1-5.6,2.1-9s-.7-6.5-2.1-9.1c-1.4-2.6-3.4-4.6-5.9-6.1-2.5-1.5-5.3-2.2-8.5-2.2s-6,.7-8.4,2.2c-2.5,1.5-4.5,3.5-5.9,6.1-1.5,2.6-2.2,5.6-2.2,9.1s.7,6.4,2.2,9c1.5,2.6,3.4,4.7,5.9,6.2,2.5,1.5,5.3,2.2,8.4,2.2Z"/>
  <path d="M441,233.6v-37h1.4v17.7h27.9v-17.7h1.4v37h-1.4v-18h-27.9v18h-1.4Z"/>
  <path d="M502.7,233.8c-3.5,0-6.6-.8-9.3-2.4-2.7-1.6-4.9-3.8-6.5-6.6-1.6-2.8-2.4-6.1-2.4-9.7s.8-6.9,2.4-9.7c1.6-2.8,3.7-5,6.5-6.6,2.7-1.6,5.9-2.4,9.3-2.4s5.2.5,7.5,1.5c2.3,1,4.3,2.5,5.8,4.5l-1,1.1c-1.4-2-3.2-3.4-5.4-4.3-2.1-.9-4.5-1.4-6.9-1.4s-6.1.7-8.6,2.2c-2.5,1.5-4.5,3.5-6,6.1-1.5,2.6-2.2,5.6-2.2,9.1s.7,6.5,2.2,9.1c1.5,2.6,3.4,4.6,6,6.1,2.5,1.5,5.4,2.2,8.6,2.2s4.8-.5,6.9-1.4c2.1-1,3.9-2.4,5.4-4.3l1,1.1c-1.6,2-3.5,3.5-5.8,4.5-2.3,1-4.8,1.5-7.5,1.5Z"/>
  <path d="M541.1,233.8c-2.8,0-5.1-.4-7.1-1.3-2-.9-3.4-2.1-4.5-3.7-1-1.6-1.5-3.4-1.5-5.4s.4-3.4,1.3-4.9c.8-1.5,2.2-2.7,4.1-3.7,1.9-.9,4.5-1.4,7.8-1.4h14.8v1.4h-14.9c-4.2,0-7.2.8-9,2.4-1.8,1.6-2.7,3.6-2.7,6.1s1,5,3.1,6.6c2.1,1.6,4.9,2.5,8.6,2.5s6.5-.8,8.8-2.5c2.3-1.6,4.1-4,5.3-7l.7.9c-1,3-2.8,5.3-5.3,7.2-2.5,1.8-5.7,2.7-9.6,2.7ZM555.2,233.6v-24.2c0-3.9-1-6.8-3-8.7-2-2-4.9-2.9-8.7-2.9s-5.3.5-7.6,1.4c-2.3,1-4.2,2.2-5.9,3.7l-1-1c1.8-1.7,3.9-3,6.4-4,2.5-1,5.2-1.5,7.9-1.5,4.3,0,7.6,1.1,9.8,3.3,2.3,2.2,3.4,5.4,3.4,9.7v24.3h-1.4Z"/>
  <path d="M568.4,233.4l.3-1.3c.3,0,.6.1.9.2.3,0,.6.1.9.1,1.6,0,2.9-.7,3.9-2,1-1.3,1.8-3.1,2.3-5.4.5-2.3,1-4.8,1.2-7.7.3-2.8.5-5.8.6-8.8l.6-12.1h24.3v37h-1.4v-36.2l.6.6h-22.6l.6-.6-.6,11.6c-.2,3.2-.4,6.3-.8,9.3-.3,3-.8,5.6-1.4,8-.6,2.3-1.5,4.2-2.6,5.5-1.1,1.4-2.6,2-4.4,2s-.8,0-1.1-.1c-.4,0-.8-.2-1.2-.3Z"/>
  <path d="M632.7,233.6v-36.2l.6.6h-15.6v-1.4h31.5v1.4h-15.6l.6-.6v36.2h-1.4Z"/>
  <rect x="87.2" y="196.5" width="249.1" height="37"/>
  <g>
    <path d="M90.6,157.2v-88.2h39.6c10.2,0,18,2,23.4,6.1,5.5,4.1,8.2,9.6,8.2,16.7s-1.1,8.8-3.2,12.1-5,5.8-8.6,7.6c-3.6,1.8-7.5,2.6-11.7,2.6l2.3-3.8c5,0,9.5.9,13.4,2.6,3.9,1.8,6.9,4.3,9.2,7.7,2.3,3.4,3.4,7.6,3.4,12.7,0,7.6-2.8,13.4-8.5,17.6s-14.1,6.2-25.3,6.2h-42.1ZM103.2,147h29c7,0,12.3-1.2,16-3.5,3.7-2.4,5.5-6,5.5-11.1s-1.8-8.9-5.5-11.2c-3.7-2.4-9-3.5-16-3.5h-30.1v-10.2h27c6.4,0,11.3-1.2,14.9-3.5,3.5-2.4,5.3-5.9,5.3-10.6s-1.8-8.2-5.3-10.6c-3.5-2.4-8.5-3.5-14.9-3.5h-25.8v67.8Z"/>
    <path d="M175.8,157.2l39.9-88.2h12.5l40.1,88.2h-13.2l-35.7-81.2h5l-35.7,81.2h-13ZM192.8,135.2l3.4-10.1h49.6l3.7,10.1h-56.7Z"/>
    <path d="M297.4,157.2v-33.8l2.9,7.8-37.9-62.2h13.5l31.9,52.5h-7.3l32-52.5h12.5l-37.8,62.2,2.8-7.8v33.8h-12.5Z"/>
    <path d="M359.8,157.2v-88.2h36.8c9.5,0,16.9,1.9,22.3,5.8,5.4,3.9,8.1,9.5,8.1,16.8s-1.1,8.8-3.4,12.1-5.4,5.7-9.4,7.4c-4,1.6-8.5,2.5-13.4,2.5l2.3-2.5c6,0,11.2.9,15.5,2.6,4.3,1.8,7.5,4.3,9.8,7.7,2.2,3.4,3.3,7.6,3.3,12.6,0,7.4-2.7,13.1-8.1,17.2-5.4,4.1-13.5,6.1-24.4,6.1h-39.3ZM366.2,151.7h32.9c8.5,0,15-1.4,19.4-4.3,4.5-2.9,6.7-7.5,6.7-13.9s-2.2-10.9-6.7-13.8c-4.5-2.9-10.9-4.3-19.4-4.3h-33.6v-5.5h30.9c7.6,0,13.6-1.5,17.8-4.4,4.2-2.9,6.3-7.4,6.3-13.2s-2.1-10.2-6.3-13.1c-4.2-2.9-10.1-4.4-17.8-4.4h-30.1v77.1Z"/>
    <path d="M439.8,157.2l40.6-88.2h6.4l40.6,88.2h-6.9l-38.3-84.2h2.8l-38.2,84.2h-6.9ZM454.7,132.4l2.1-5.4h52.8l2.1,5.4h-57.1Z"/>
    <path d="M543.4,157.2v-88.2h6.4v88.2h-6.4ZM548.9,134.9l-.3-8.1,56.2-57.8h7.8l-39.3,40.7-3.7,3.9-20.8,21.3ZM607.5,157.2l-39.7-45.4,4.4-4.7,43.1,50h-7.8Z"/>
    <path d="M666.3,157.9c-6.6,0-12.6-1.1-18.2-3.3-5.6-2.2-10.5-5.4-14.6-9.5-4.2-4.1-7.4-8.8-9.6-14.2-2.3-5.4-3.4-11.3-3.4-17.7s1.1-12.3,3.4-17.7c2.3-5.4,5.5-10.2,9.6-14.2,4.2-4.1,9-7.2,14.6-9.5,5.6-2.2,11.7-3.3,18.2-3.3s12.6,1.1,18.2,3.3c5.6,2.2,10.4,5.4,14.6,9.4,4.1,4,7.3,8.8,9.6,14.2,2.3,5.4,3.5,11.4,3.5,17.8s-1.2,12.4-3.5,17.8c-2.3,5.4-5.5,10.1-9.6,14.2-4.1,4-9,7.2-14.6,9.4-5.6,2.2-11.7,3.3-18.2,3.3ZM666.3,151.9c5.6,0,10.8-1,15.6-2.9,4.8-1.9,8.9-4.7,12.5-8.2,3.5-3.5,6.3-7.6,8.3-12.3,2-4.7,3-9.8,3-15.4s-1-10.8-3-15.4c-2-4.7-4.7-8.8-8.3-12.3s-7.7-6.3-12.5-8.2c-4.8-1.9-10-2.9-15.6-2.9s-10.8,1-15.6,2.9c-4.8,1.9-9,4.7-12.5,8.2-3.6,3.5-6.3,7.6-8.3,12.3-2,4.7-3,9.8-3,15.4s1,10.7,3,15.4c2,4.7,4.7,8.8,8.3,12.3,3.6,3.5,7.8,6.3,12.5,8.2,4.8,1.9,10,2.9,15.6,2.9Z"/>
    <path d="M756.5,157.2l-39.3-88.2h7.1l37.6,84.3h-3.9l37.7-84.3h6.7l-39.3,88.2h-6.4Z"/>
    <path d="M799.1,157.2l40.6-88.2h6.4l40.6,88.2h-6.9l-38.3-84.2h2.8l-38.2,84.2h-6.9ZM813.9,132.4l2.1-5.4h52.8l2.1,5.4h-57.1Z"/>
  </g>
</svg>